<svg width="480" height="227" viewBox="0 0 480 227" fill="none" xmlns="http://www.w3.org/2000/svg">
    <rect width="480" height="227" rx="64" fill="#F7341D" />
    <path
        d="M331 121C331 113.268 337.268 107 345 107H406C413.732 107 420 113.268 420 121V155C420 162.732 413.732 169 406 169H345C337.268 169 331 162.732 331 155V121Z"
        fill="white" />
    <path
        d="M395.653 67.3475C400.997 72.6922 404 79.9413 404 87.5V107H390L390.011 87.5C390.011 83.6514 388.482 79.9605 385.761 77.2391C383.04 74.5177 379.349 72.9889 375.5 72.9889C371.651 72.9889 367.96 74.5177 365.239 77.2391C362.518 79.9605 360.989 83.6514 360.989 87.5L361 107H347V87.5C347 79.9413 350.003 72.6922 355.347 67.3475C360.692 62.0027 367.941 59 375.5 59C383.059 59 390.308 62.0027 395.653 67.3475Z"
        fill="white" />
    <path
        d="M98.3405 69.8202C98.3405 94.1657 103.145 106.188 104.046 108.292C102.544 106.489 92.6354 98.073 69.5147 90.559L59.6059 87.2528L53 107.39L62.9088 110.697C76.4209 115.205 90.2332 117.61 101.043 117.008C99.2413 118.211 87.8311 124.823 73.7185 144.66L67.4129 153.076L84.5281 165.699L90.8338 156.983C104.946 137.447 108.55 124.823 108.85 122.419C109.15 124.823 112.153 137.747 126.265 157.284L132.571 166L149.686 153.376L143.381 144.961C129.268 126.326 119.359 118.511 116.357 117.008C128.367 117.61 141.279 115.806 154.791 110.997L165 107.691L158.094 87.5534L148.185 90.8595C126.866 98.3736 116.357 105.587 113.354 107.992C115.155 104.685 119.66 92.6629 119.66 69.8202V59H98.3405V69.8202Z"
        fill="white" />
    <path
        d="M237.34 69.8202C237.34 94.1657 242.145 106.188 243.046 108.292C241.544 106.489 231.635 98.073 208.515 90.559L198.606 87.2528L192 107.39L201.909 110.697C215.421 115.205 229.233 117.61 240.043 117.008C238.241 118.211 226.831 124.823 212.718 144.66L206.413 153.076L223.528 165.699L229.834 156.983C243.946 137.447 247.55 124.823 247.85 122.419C248.15 124.823 251.153 137.747 265.265 157.284L271.571 166L288.686 153.376L282.381 144.961C268.268 126.326 258.359 118.511 255.357 117.008C267.367 117.61 280.279 115.806 293.791 110.997L304 107.691L297.094 87.5534L287.185 90.8595C265.866 98.3736 255.357 105.587 252.354 107.992C254.155 104.685 258.66 92.6629 258.66 69.8202V59H237.34V69.8202Z"
        fill="white" />
</svg>